<?xml version="1.0" encoding="utf-8"?>
<!-- Generator: Adobe Illustrator 27.5.0, SVG Export Plug-In . SVG Version: 6.00 Build 0)  -->
<svg version="1.1" id="Layer_1" xmlns="http://www.w3.org/2000/svg" xmlns:xlink="http://www.w3.org/1999/xlink" x="0px" y="0px"
	 viewBox="0 0 24 24" style="enable-background:new 0 0 24 24;" xml:space="preserve">
<style type="text/css">
	.st0{fill:none;}
	.st1{fill:#DC1D30;}
	.st2{fill:#FFFFFF;}
</style>
<g>
	<rect class="st0" width="24" height="24"/>
</g>
<g>
	<path class="st1" d="M20.1,14.5l-0.7,4.7c-0.1,1-1,1.8-2.1,1.8h-6.5c-0.6,0-1.4-0.2-1.8-0.6l-4.8-5.1l0.9-0.9
		c0.3-0.3,0.6-0.4,1-0.3l3.4,0.8V3.6c0-0.9,0.7-1.6,1.6-1.6c0.9,0,1.6,0.7,1.6,1.6v6.3h1c0.3,0,0.7,0.1,0.9,0.2l4.3,2.2
		C19.7,12.7,20.2,13.6,20.1,14.5z"/>
</g>
<path class="st2" d="M11.1,6.6L11.1,6.6c-0.3,0-0.5-0.2-0.5-0.5V3.8c0-0.3,0.2-0.5,0.5-0.5h0c0.3,0,0.5,0.2,0.5,0.5v2.4
	C11.6,6.4,11.4,6.6,11.1,6.6z"/>
</svg>
